<svg width="166" height="47" viewBox="0 0 166 47" fill="none" xmlns="http://www.w3.org/2000/svg">
<g clip-path="url(#clip0_2_2)">
<path d="M34.4498 -0.0254657L9.55582 -0.0604855C4.97296 -0.0669325 1.2524 3.77333 1.24573 8.51698L1.20948 34.2844C1.20281 39.028 4.91254 42.8788 9.4954 42.8852L34.3894 42.9202C38.9723 42.9267 42.6928 39.0864 42.6995 34.3428L42.7358 8.57534C42.7424 3.8317 39.0327 -0.0190187 34.4498 -0.0254657Z" fill="#2CB1BC"/>
<path d="M21.2059 36.2286L10.4531 36.2135L10.494 7.12261L21.2327 7.13772C24.1967 7.14189 26.7479 7.72787 28.8864 8.89565C31.0344 10.054 32.6893 11.723 33.851 13.9026C35.0127 16.0728 35.5915 18.6683 35.5872 21.6892C35.5829 24.7195 34.9969 27.3228 33.8291 29.4992C32.6707 31.6756 31.0159 33.3447 28.8646 34.5064C26.7134 35.6587 24.1605 36.2328 21.2059 36.2286ZM17.4928 30.2291L20.9445 30.2339C22.5733 30.2362 23.9515 29.9635 25.0792 29.4159C26.2163 28.8588 27.0746 27.9556 27.654 26.7064C28.2429 25.4478 28.5388 23.7721 28.5418 21.6793C28.5447 19.5865 28.2535 17.9194 27.6681 16.678C27.0827 15.4272 26.2175 14.5264 25.0725 13.9755C23.9369 13.4152 22.5358 13.1339 20.8691 13.1315L17.5168 13.1268L17.4928 30.2291Z" fill="white"/>
<g filter="url(#filter0_b_2_2)">
<path d="M53.7205 31.3745L47.2752 31.3655L47.3007 13.1837L53.7993 13.1928C55.6282 13.1954 57.202 13.5616 58.5208 14.2914C59.8396 15.0153 60.8532 16.0555 61.5615 17.4118C62.2757 18.7682 62.6315 20.3904 62.6289 22.2784C62.6262 24.1723 62.2659 25.7994 61.5478 27.1597C60.8357 28.52 59.8132 29.5631 58.4805 30.2893C57.1538 31.0154 55.5671 31.3771 53.7205 31.3745ZM51.1239 28.0772L53.5653 28.0806C54.7017 28.0822 55.6578 27.8823 56.4337 27.481C57.2155 27.0737 57.8023 26.4442 58.1942 25.5925C58.5919 24.7348 58.7917 23.6283 58.7937 22.273C58.7955 20.9295 58.5988 19.8313 58.2035 18.9785C57.814 18.1257 57.232 17.4975 56.4572 17.0939C55.6824 16.6904 54.7269 16.4878 53.5905 16.4862L51.1402 16.4828L51.1239 28.0772ZM65.3926 31.391L65.4118 17.7546L69.0783 17.7598L69.075 20.139L69.217 20.1392C69.4668 19.2932 69.885 18.6546 70.4715 18.2234C71.0581 17.7862 71.7331 17.5682 72.4966 17.5693C72.686 17.5695 72.8901 17.5816 73.1091 17.6056C73.328 17.6296 73.5204 17.6624 73.686 17.7041L73.6813 21.0599C73.5038 21.0064 73.2583 20.9587 72.9446 20.9168C72.631 20.875 72.344 20.8538 72.0836 20.8535C71.5272 20.8527 71.0299 20.9733 70.5916 21.2154C70.1592 21.4515 69.8155 21.7825 69.5604 22.2082C69.3112 22.634 69.1862 23.1251 69.1854 23.6814L69.1746 31.3963L65.3926 31.391ZM75.6221 31.4053L75.6413 17.769L79.4232 17.7743L79.404 31.4107L75.6221 31.4053ZM77.5436 16.0139C76.9813 16.0131 76.4992 15.826 76.0973 15.4525C75.7013 15.0732 75.5037 14.6201 75.5044 14.0934C75.5051 13.5725 75.704 13.126 76.1011 12.7537C76.5041 12.3754 76.9867 12.1867 77.549 12.1875C78.1112 12.1883 78.5904 12.3784 78.9864 12.7577C79.3883 13.1312 79.5889 13.5783 79.5882 14.0991C79.5875 14.6259 79.3856 15.0784 78.9826 15.4566C78.5855 15.8289 78.1059 16.0146 77.5436 16.0139ZM95.1658 17.7965L90.3793 31.4261L86.1179 31.4201L81.3697 17.7771L85.3647 17.7827L88.183 27.5434L88.3251 27.5436L91.1619 17.7908L95.1658 17.7965ZM102.857 31.71C101.454 31.708 100.247 31.4222 99.2357 30.8526C98.2304 30.2771 97.4562 29.4652 96.9132 28.4168C96.3701 27.3626 96.0996 26.1163 96.1017 24.6781C96.1036 23.2754 96.3776 22.0447 96.9236 20.9861C97.4696 19.9274 98.2372 19.1029 99.2265 18.5124C100.222 17.9219 101.388 17.6277 102.726 17.6295C103.625 17.6308 104.462 17.777 105.237 18.0681C106.018 18.3533 106.698 18.7833 107.277 19.3582C107.863 19.9332 108.317 20.6559 108.642 21.5264C108.966 22.3909 109.127 23.4032 109.126 24.5633L109.124 25.602L97.6096 25.5858L97.6129 23.242L105.567 23.2532C105.568 22.7087 105.451 22.2262 105.214 21.8056C104.978 21.3851 104.65 21.0561 104.23 20.8188C103.816 20.5756 103.334 20.4536 102.784 20.4528C102.21 20.452 101.7 20.5844 101.256 20.8501C100.818 21.1099 100.474 21.4616 100.225 21.9051C99.9757 22.3428 99.8477 22.8309 99.8411 23.3694L99.8379 25.5978C99.837 26.2725 99.9605 26.8557 100.208 27.3472C100.462 27.8388 100.82 28.2181 101.281 28.4851C101.742 28.7521 102.29 28.886 102.923 28.8869C103.343 28.8875 103.728 28.8289 104.077 28.711C104.427 28.5931 104.726 28.416 104.975 28.1796C105.223 27.9432 105.413 27.6535 105.544 27.3104L109.042 27.5461C108.863 28.3863 108.498 29.1197 107.946 29.7463C107.401 30.367 106.696 30.8513 105.831 31.1993C104.973 31.5413 103.981 31.7116 102.857 31.71ZM111.584 31.4559L111.603 17.8196L115.27 17.8247L115.266 20.204L115.408 20.2042C115.658 19.3582 116.076 18.7196 116.663 18.2884C117.249 17.8512 117.924 17.6332 118.688 17.6342C118.877 17.6345 119.082 17.6466 119.3 17.6706C119.519 17.6946 119.712 17.7274 119.877 17.7691L119.873 21.1249C119.695 21.0714 119.45 21.0237 119.136 20.9818C118.822 20.9399 118.535 20.9188 118.275 20.9185C117.719 20.9177 117.221 21.0383 116.783 21.2804C116.351 21.5165 116.007 21.8474 115.752 22.2732C115.503 22.699 115.378 23.1901 115.377 23.7464L115.366 31.4613L111.584 31.4559Z" fill="#01ECFF"/>
</g>
</g>
<defs>
<filter id="filter0_b_2_2" x="43.2748" y="8.14496" width="80.6103" height="27.589" filterUnits="userSpaceOnUse" color-interpolation-filters="sRGB">
<feFlood flood-opacity="0" result="BackgroundImageFix"/>
<feGaussianBlur in="BackgroundImageFix" stdDeviation="2"/>
<feComposite in2="SourceAlpha" operator="in" result="effect1_backgroundBlur_2_2"/>
<feBlend mode="normal" in="SourceGraphic" in2="effect1_backgroundBlur_2_2" result="shape"/>
</filter>
<clipPath id="clip0_2_2">
<rect width="166" height="47" fill="white"/>
</clipPath>
</defs>
</svg>
